Coordinates
version=1
nRows=11
nColumns=42
inDegrees=yes

Units are S.I. units (second, meters, Newtons, ...)
If the header above contains a line with 'inDegrees', this indicates whether rotational values are in degrees (yes) or radians (no).

endheader
time	pelvis_tilt	pelvis_list	pelvis_rotation	pelvis_tx	pelvis_ty	pelvis_tz	hip_flexion_r	hip_adduction_r	hip_rotation_r	knee_angle_r	knee_angle_r_beta	ankle_angle_r	subtalar_angle_r	mtp_angle_r	hip_flexion_l	hip_adduction_l	hip_rotation_l	knee_angle_l	knee_angle_l_beta	ankle_angle_l	subtalar_angle_l	mtp_angle_l	lumbar_extension	lumbar_bending	lumbar_rotation	sh_tx_r	sh_ty_r	sh_tz_r	sh_plane_elev_r	sh_elev_r	sh_axial_rot_r	elbow_flex_r	pro_sup_r	sh_tx_l	sh_ty_l	sh_tz_l	sh_plane_elev_l	sh_elev_l	sh_axial_rot_l	elbow_flex_l	pro_sup_l
      0.00000000	     -6.30156497	      0.76780546	     -0.94364516	      0.26346128	      0.93364465	     -0.06472416	      5.58791316	     -7.85641554	    -11.92659580	      4.31936592	      0.07538716	    -10.44342302	    -22.33150969	     -5.34062926	      6.94802571	     -4.27329890	     -5.91943396	      7.36501174	      0.12854370	      6.02648357	     -7.79520886	     -5.34062926	      0.72490603	     -0.46606876	     -5.66426290	      0.01180379	     -0.01652135	     -0.00509826	      8.79000438	      6.70689477	      1.52938390	     22.22474339	     79.47357039	      0.00837928	     -0.01760252	     -0.00607344	      9.53686803	      2.38309930	     -2.52525741	     27.04968346	     73.26814767
      0.01666670	     -8.11943631	      1.15930608	     -0.49929441	      0.26451154	      0.93086667	     -0.06520482	      7.45152821	     -8.27180397	    -12.86946349	      4.20305435	      0.07335714	     -7.32170843	    -19.67134826	     -6.21134315	      9.43549058	     -3.81595734	     -6.67865308	      6.76224337	      0.11802341	      6.91119326	     -5.42587811	     -6.21134315	      3.36520398	     -0.98877065	     -6.81447822	      0.01192344	     -0.01605620	     -0.00549726	      1.43958108	      5.36879675	      2.97517859	     21.77474536	     79.56903829	      0.00628649	     -0.01725886	     -0.00648141	      1.85012203	      1.14746405	     -1.57724044	     27.80570796	     76.46367561
      0.03333330	     -8.25852628	      1.81507052	     -0.20295999	      0.26419648	      0.93104552	     -0.06480667	      7.18344427	     -9.00717722	    -13.88438241	      3.38661233	      0.05910754	     -7.07671396	    -19.48292099	     -6.50413689	      9.43532227	     -3.22231651	     -7.20749460	      5.99605127	      0.10465084	      6.75746295	     -4.39304714	     -6.50413689	      3.39942466	     -1.77806481	     -7.45885780	      0.01182140	     -0.01568391	     -0.00547256	      1.00638198	      4.96741911	      2.39611958	     22.06169420	     77.30625464	      0.00439346	     -0.01705346	     -0.00621304	      4.15897121	      1.45760061	     -2.75218499	     29.22599691	     74.65779078
      0.05000000	     -8.13875463	      2.26095494	      0.14437183	      0.25974452	      0.93168134	     -0.06037624	      6.91525730	     -9.39566517	    -14.13361019	      2.95163825	      0.05151581	     -6.66037982	    -19.49473611	     -6.51307331	      9.08733688	     -2.82053615	     -7.08793405	      5.14510062	      0.08979895	      6.17589935	     -4.23468377	     -6.51307331	      3.39936247	     -2.49130449	     -8.02821161	      0.01314874	     -0.01633171	     -0.00552211	      0.96162228	      4.50131554	      2.53498059	     21.93130593	     77.33996144	      0.00441110	     -0.01694222	     -0.00588336	      4.39270076	      1.60642473	     -2.31971761	     30.08715107	     74.78495720
      0.06666670	     -7.52367877	      2.31154646	      0.45503198	      0.25931310	      0.93029305	     -0.06032448	      6.02258417	     -9.29232120	    -14.54121882	      2.54377423	      0.04439724	     -6.14110273	    -19.41182481	     -6.67849111	      8.16628203	     -2.81882323	     -6.78541203	      4.28001958	      0.07470043	      5.75991654	     -4.35270509	     -6.67849111	      2.66014066	     -2.54944013	     -8.69139381	      0.01599586	     -0.01636655	     -0.00554975	      0.96673679	      4.30082597	      3.62467226	     22.69660404	     77.65860947	      0.00429413	     -0.01668510	     -0.00571768	      4.19043173	      1.76133430	     -0.92255941	     31.63845674	     74.55262517
      0.08333330	     -7.48070982	      2.47427106	      0.68397683	      0.25479214	      0.93091839	     -0.06443152	      5.97564116	     -9.48485841	    -14.91194839	      2.37181147	      0.04139592	     -5.91536357	    -19.73907848	     -6.69128812	      8.04560298	     -2.54404653	     -6.45972070	      3.67022339	      0.06405748	      5.50788294	     -4.42340695	     -6.69128812	      2.77173212	     -2.68474635	     -8.85009271	      0.01895076	     -0.01662311	     -0.00546300	      1.27285056	      4.17787248	      3.82447179	     22.69395472	     77.69978140	      0.00745424	     -0.01667777	     -0.00555802	      4.34671367	      1.82917246	     -0.68942684	     32.66798819	     74.51892843
      0.10000000	     -7.06013329	      2.49851845	      0.84015317	      0.25880087	      0.93485690	     -0.06024366	      5.29154956	     -9.37797735	    -15.19104927	      1.99090373	      0.03474783	     -5.60893269	    -19.75587977	     -6.73856922	      7.36262556	     -2.53769423	     -6.17572513	      3.04207130	      0.05309416	      5.20542668	     -4.47029121	     -6.73856922	      2.43115124	     -2.70916957	     -8.85338333	      0.01972707	     -0.01670482	     -0.00539002	      2.24695289	      4.09055589	      4.02150911	     22.87418518	     77.25005717	      0.00950001	     -0.01644571	     -0.00537626	      5.28042185	      1.97021406	     -0.62662440	     33.13346253	     73.91136261
      0.11666670	     -6.85932663	      2.47538220	      1.04552926	      0.25839062	      0.93211864	     -0.05980419	      4.88655009	     -9.26111379	    -15.51133985	      1.78706129	      0.03119010	     -5.48080712	    -20.08572201	     -6.78983103	      7.00201227	     -2.56116767	     -5.72605416	      2.64060910	      0.04608732	      4.93443663	     -4.76735741	     -6.78983103	      2.29802677	     -2.69065711	     -9.15950765	      0.02064762	     -0.01672421	     -0.00529518	      4.02168826	      4.09831548	      3.54145176	     23.01011222	     76.68057773	      0.01031153	     -0.01619178	     -0.00529441	      6.65934782	      2.10317172	     -2.20352969	     33.65891390	     72.31609834
      0.13333330	     -6.72306952	      2.46392107	      1.14557996	      0.25757171	      0.93244387	     -0.05960290	      4.86756617	     -9.26849786	    -15.86203126	      2.19436860	      0.03829896	     -4.67066895	    -19.62486651	     -6.94612553	      6.99633930	     -2.63554755	     -5.57629433	      2.84286785	      0.04961740	      5.02553186	     -4.74083428	     -6.94612553	      1.90306113	     -2.67395157	     -9.24021000	      0.01888304	     -0.01430284	     -0.00531768	      6.88752424	      4.53093492	      3.03696243	     23.76150947	     74.45592030	      0.01015721	     -0.01326152	     -0.00539975	      9.94311199	      2.97731557	     -2.96689164	     33.98522649	     69.48416121
      0.15000000	     -6.34126471	      2.40354351	      1.26580086	      0.25793112	      0.93587293	     -0.05980130	      3.96709535	     -9.03613337	    -15.87482674	      1.39245310	      0.02430289	     -5.17680775	    -20.14981974	     -7.05554971	      6.10243145	     -2.67159928	     -5.18989790	      1.87495834	      0.03272420	      4.49290287	     -4.77480104	     -7.05554971	      2.09253985	     -2.73047278	    -10.15307206	      0.02399407	     -0.01677846	     -0.00536141	      7.87658864	      4.19692099	      2.47802315	     22.98481872	     76.30898164	      0.00992073	     -0.01538984	     -0.00507618	      4.69966462	      1.97388040	     -0.73448025	     33.44179199	     67.23785809
      0.16666670	     -6.27829643	      2.30207653	      1.22761327	      0.25774954	      0.93336901	     -0.05936066	      3.82662254	     -8.89374846	    -15.99061148	      1.29291417	      0.02256561	     -5.04893980	    -20.03907173	     -7.07161025	      5.95949743	     -2.77189623	     -4.98899370	      1.65957871	      0.02896511	      4.64941448	     -4.39780773	     -7.07161025	      2.25113095	     -2.64868322	    -10.02506105	      0.02410585	     -0.01682852	     -0.00535605	      8.98785414	      4.30730943	      1.91201286	     22.75012305	     75.99500828	      0.01153089	     -0.01515258	     -0.00500450	      6.27604444	      2.04808266	     -1.89912697	     33.11541547	     66.58421021
